<svg width="26" height="26" viewBox="0 0 26 26" fill="none" xmlns="http://www.w3.org/2000/svg">
<path d="M22.6927 8.99716C22.6817 8.17667 22.5281 7.36433 22.2387 6.59649C21.9878 5.94882 21.6045 5.36062 21.1133 4.86948C20.6222 4.37833 20.034 3.99503 19.3863 3.74408C18.6284 3.45955 17.8276 3.3057 17.0182 3.28908C15.976 3.24249 15.6456 3.22949 13.0001 3.22949C10.3546 3.22949 10.0155 3.22949 8.98091 3.28908C8.17183 3.30582 7.37145 3.45967 6.61383 3.74408C5.96606 3.99486 5.37777 4.37809 4.8866 4.86926C4.39542 5.36043 4.01219 5.94872 3.76141 6.59649C3.47631 7.35389 3.32279 8.15445 3.30749 8.96358C3.26091 10.0068 3.24683 10.3372 3.24683 12.9827C3.24683 15.6282 3.24683 15.9662 3.30749 17.0019C3.32374 17.8122 3.47649 18.6117 3.76141 19.3712C4.01261 20.0187 4.39613 20.6068 4.88747 21.0977C5.3788 21.5887 5.96714 21.9718 6.61491 22.2225C7.37046 22.5185 8.17098 22.6833 8.98199 22.71C10.0252 22.7566 10.3557 22.7707 13.0012 22.7707C15.6467 22.7707 15.9857 22.7707 17.0203 22.71C17.8297 22.6941 18.6305 22.5406 19.3885 22.2561C20.036 22.0048 20.624 21.6214 21.1152 21.1303C21.6063 20.6392 21.9897 20.0512 22.2409 19.4037C22.5258 18.6453 22.6786 17.8458 22.6948 17.0344C22.7414 15.9922 22.7555 15.6618 22.7555 13.0152C22.7533 10.3697 22.7533 10.0339 22.6927 8.99716ZM12.9936 17.9856C10.2267 17.9856 7.98533 15.7442 7.98533 12.9773C7.98533 10.2105 10.2267 7.96908 12.9936 7.96908C14.3218 7.96908 15.5957 8.49673 16.5349 9.43596C17.4742 10.3752 18.0018 11.6491 18.0018 12.9773C18.0018 14.3056 17.4742 15.5795 16.5349 16.5187C15.5957 17.4579 14.3218 17.9856 12.9936 17.9856ZM18.2012 8.95166C18.0478 8.9518 17.8958 8.92169 17.7541 8.86305C17.6123 8.80442 17.4835 8.7184 17.3751 8.60993C17.2666 8.50145 17.1806 8.37266 17.1219 8.2309C17.0633 8.08915 17.0332 7.93723 17.0333 7.78383C17.0333 7.63053 17.0635 7.47874 17.1222 7.33712C17.1808 7.1955 17.2668 7.06682 17.3752 6.95843C17.4836 6.85003 17.6123 6.76405 17.7539 6.70539C17.8955 6.64673 18.0473 6.61653 18.2006 6.61653C18.3539 6.61653 18.5057 6.64673 18.6473 6.70539C18.7889 6.76405 18.9176 6.85003 19.026 6.95843C19.1344 7.06682 19.2204 7.1955 19.2791 7.33712C19.3377 7.47874 19.3679 7.63053 19.3679 7.78383C19.3679 8.42949 18.8457 8.95166 18.2012 8.95166Z" fill="#CCCCCC"/>
<path d="M12.9936 16.2304C14.7903 16.2304 16.2469 14.7738 16.2469 12.9771C16.2469 11.1804 14.7903 9.72388 12.9936 9.72388C11.1969 9.72388 9.74036 11.1804 9.74036 12.9771C9.74036 14.7738 11.1969 16.2304 12.9936 16.2304Z" fill="#CCCCCC"/>
</svg>
