<svg width="26" height="26" viewBox="0 0 26 26" fill="none" xmlns="http://www.w3.org/2000/svg">
<path d="M6.69492 21.6667C7.99923 21.6667 9.05658 20.6093 9.05658 19.305C9.05658 18.0007 7.99923 16.9434 6.69492 16.9434C5.39061 16.9434 4.33325 18.0007 4.33325 19.305C4.33325 20.6093 5.39061 21.6667 6.69492 21.6667Z" fill="#CCCCCC"/>
<path d="M4.33325 4.80981V7.87565C11.9491 7.87565 18.1241 14.0506 18.1241 21.6665H21.1899C21.1899 12.3606 13.6391 4.80981 4.33325 4.80981ZM4.33325 10.9415V14.0073C8.55825 14.0073 11.9924 17.4415 11.9924 21.6665H15.0583C15.0583 15.7406 10.2591 10.9415 4.33325 10.9415Z" fill="#CCCCCC"/>
</svg>
