<svg width="22" height="18" viewBox="0 0 22 18" fill="none" xmlns="http://www.w3.org/2000/svg">
<path d="M19.2692 4.6635C19.2832 4.85309 19.2832 5.04159 19.2832 5.23009C19.2832 10.9988 14.8925 17.6462 6.86825 17.6462C4.39608 17.6462 2.09941 16.9301 0.166748 15.6864C0.517748 15.7265 0.855748 15.7406 1.22083 15.7406C3.18491 15.7453 5.09336 15.0886 6.63858 13.8762C5.72795 13.8597 4.8452 13.5592 4.11359 13.0168C3.38197 12.4744 2.83801 11.717 2.55766 10.8504C2.82741 10.8905 3.09825 10.9176 3.38208 10.9176C3.77316 10.9176 4.16641 10.8634 4.5315 10.7692C3.54324 10.5696 2.65459 10.034 2.01667 9.25325C1.37874 8.47253 1.03092 7.49496 1.03233 6.48675V6.43259C1.61408 6.7565 2.289 6.95909 3.004 6.98617C2.40501 6.58814 1.91386 6.04803 1.57437 5.41403C1.23487 4.78003 1.05759 4.07185 1.05833 3.35267C1.05833 2.54234 1.27391 1.79917 1.652 1.15134C2.74848 2.50011 4.11604 3.60353 5.66611 4.39013C7.21618 5.17674 8.91419 5.62899 10.6502 5.71759C10.583 5.39259 10.5418 5.05567 10.5418 4.71767C10.5415 4.14455 10.6542 3.57698 10.8734 3.04743C11.0926 2.51788 11.414 2.03672 11.8193 1.63146C12.2245 1.2262 12.7057 0.904783 13.2353 0.685589C13.7648 0.466395 14.3324 0.35372 14.9055 0.354004C16.1622 0.354004 17.2964 0.880504 18.0937 1.732C19.0707 1.54309 20.0075 1.18646 20.8627 0.677921C20.5371 1.6863 19.855 2.54137 18.9442 3.08292C19.8106 2.9841 20.6574 2.75624 21.4564 2.40692C20.8596 3.27694 20.1201 4.03988 19.2692 4.6635Z" fill="#CCCCCC"/>
</svg>
