<svg width="20" height="20" viewBox="0 0 20 20" fill="none" xmlns="http://www.w3.org/2000/svg">
<path d="M19.6927 5.99716C19.6817 5.17667 19.5281 4.36433 19.2387 3.59649C18.9878 2.94882 18.6045 2.36062 18.1133 1.86948C17.6222 1.37833 17.034 0.995031 16.3863 0.744076C15.6284 0.459546 14.8276 0.305695 14.0182 0.289076C12.976 0.242492 12.6456 0.229492 10.0001 0.229492C7.35458 0.229492 7.01549 0.229492 5.98091 0.289076C5.17183 0.305817 4.37145 0.459666 3.61383 0.744076C2.96606 0.994856 2.37777 1.37809 1.8866 1.86926C1.39542 2.36043 1.01219 2.94872 0.761409 3.59649C0.47631 4.35389 0.322793 5.15445 0.307493 5.96358C0.260909 7.00683 0.246826 7.33724 0.246826 9.98274C0.246826 12.6282 0.246826 12.9662 0.307493 14.0019C0.323743 14.8122 0.476493 15.6117 0.761409 16.3712C1.01261 17.0187 1.39613 17.6068 1.88747 18.0977C2.3788 18.5887 2.96714 18.9718 3.61491 19.2225C4.37046 19.5185 5.17098 19.6833 5.98199 19.71C7.02524 19.7566 7.35566 19.7707 10.0012 19.7707C12.6467 19.7707 12.9857 19.7707 14.0203 19.71C14.8297 19.6941 15.6305 19.5406 16.3885 19.2561C17.036 19.0048 17.624 18.6214 18.1152 18.1303C18.6063 17.6392 18.9897 17.0512 19.2409 16.4037C19.5258 15.6453 19.6786 14.8458 19.6948 14.0344C19.7414 12.9922 19.7555 12.6618 19.7555 10.0152C19.7533 7.36974 19.7533 7.03391 19.6927 5.99716ZM9.99358 14.9856C7.22674 14.9856 4.98533 12.7442 4.98533 9.97733C4.98533 7.21049 7.22674 4.96908 9.99358 4.96908C11.3218 4.96908 12.5957 5.49673 13.5349 6.43596C14.4742 7.37519 15.0018 8.64906 15.0018 9.97733C15.0018 11.3056 14.4742 12.5795 13.5349 13.5187C12.5957 14.4579 11.3218 14.9856 9.99358 14.9856ZM15.2012 5.95166C15.0478 5.9518 14.8958 5.92169 14.7541 5.86305C14.6123 5.80442 14.4835 5.7184 14.3751 5.60993C14.2666 5.50145 14.1806 5.37266 14.1219 5.2309C14.0633 5.08915 14.0332 4.93723 14.0333 4.78383C14.0333 4.63053 14.0635 4.47874 14.1222 4.33712C14.1808 4.1955 14.2668 4.06682 14.3752 3.95843C14.4836 3.85003 14.6123 3.76405 14.7539 3.70539C14.8955 3.64673 15.0473 3.61653 15.2006 3.61653C15.3539 3.61653 15.5057 3.64673 15.6473 3.70539C15.7889 3.76405 15.9176 3.85003 16.026 3.95843C16.1344 4.06682 16.2204 4.1955 16.2791 4.33712C16.3377 4.47874 16.3679 4.63053 16.3679 4.78383C16.3679 5.42949 15.8457 5.95166 15.2012 5.95166Z" fill="#CCCCCC"/>
</svg>
