<svg width="22" height="22" viewBox="0 0 22 22" fill="none" xmlns="http://www.w3.org/2000/svg">
<path fill-rule="evenodd" clip-rule="evenodd" d="M11.0279 0.166626C5.05986 0.166626 0.222778 5.00371 0.222778 10.9718C0.222778 15.745 3.31786 19.7955 7.61219 21.2255C8.15278 21.323 8.34778 20.9905 8.34778 20.7045C8.34778 20.4477 8.33911 19.7674 8.33586 18.8671C5.32961 19.5193 4.69478 17.4176 4.69478 17.4176C4.20511 16.1696 3.49553 15.837 3.49553 15.837C2.51511 15.1665 3.57028 15.1816 3.57028 15.1816C4.65578 15.2575 5.22453 16.2953 5.22453 16.2953C6.18869 17.9463 7.75519 17.4696 8.36836 17.1934C8.46694 16.4946 8.74861 16.018 9.05628 15.7482C6.65778 15.4763 4.13578 14.549 4.13578 10.4074C4.13578 9.22979 4.55719 8.26346 5.24511 7.50946C5.13569 7.23538 4.76194 6.13579 5.35236 4.64946C5.35236 4.64946 6.25911 4.35804 8.32286 5.75554C9.20425 5.51577 10.1134 5.39338 11.0269 5.39154C11.9403 5.39302 12.8495 5.51542 13.7309 5.75554C15.7957 4.35696 16.7014 4.64946 16.7014 4.64946C17.2918 6.13579 16.9213 7.23538 16.8086 7.50946C17.5019 8.26346 17.9179 9.22871 17.9179 10.4074C17.9179 14.5598 15.3938 15.472 12.9866 15.7395C13.3712 16.0732 13.7179 16.7319 13.7179 17.7394C13.7179 19.1845 13.7049 20.3502 13.7049 20.7045C13.7049 20.9937 13.8977 21.3295 14.4491 21.2234C18.7413 19.7912 21.8331 15.7439 21.8331 10.9718C21.8331 5.00371 16.996 0.166626 11.0279 0.166626Z" fill="#CCCCCC"/>
</svg>
