<svg width="24" height="22" viewBox="0 0 24 22" fill="none" xmlns="http://www.w3.org/2000/svg">
<path d="M8.54671 21.335C9.66671 21.6491 10.7984 21.8333 12 21.8333C15.0942 21.8333 18.0617 20.6919 20.2496 18.6603C22.4375 16.6286 23.6667 13.8731 23.6667 11C23.6667 9.5773 23.3649 8.16858 22.7786 6.85422C22.1923 5.53986 21.333 4.3456 20.2496 3.33964C19.1663 2.33367 17.8801 1.53569 16.4647 0.991264C15.0492 0.446838 13.5321 0.166626 12 0.166626C10.468 0.166626 8.95087 0.446838 7.5354 0.991264C6.11994 1.53569 4.83381 2.33367 3.75046 3.33964C1.56254 5.37128 0.333374 8.12678 0.333374 11C0.333374 15.6041 3.44837 19.5583 7.84671 21.1183C7.74171 20.2733 7.63671 18.8758 7.84671 17.9116L9.18837 12.56C9.18837 12.56 8.85004 11.9316 8.85004 10.935C8.85004 9.43996 9.85338 8.32413 10.9967 8.32413C12 8.32413 12.4667 9.00663 12.4667 9.88413C12.4667 10.8158 11.8017 12.1483 11.4634 13.4266C11.265 14.4883 12.07 15.42 13.2367 15.42C15.3134 15.42 16.9234 13.3616 16.9234 10.4583C16.9234 7.85829 14.9167 6.08163 12.035 6.08163C8.74504 6.08163 6.80837 8.35663 6.80837 10.7508C6.80837 11.6825 7.13504 12.625 7.67171 13.2425C7.77671 13.3075 7.77671 13.3941 7.74171 13.5566L7.40338 14.7375C7.40338 14.9216 7.27504 14.9866 7.07671 14.8566C5.58337 14.25 4.72004 12.2783 4.72004 10.6858C4.72004 7.26246 7.33337 4.15329 12.3734 4.15329C16.3867 4.15329 19.5134 6.82913 19.5134 10.3825C19.5134 14.1091 17.0284 17.0991 13.47 17.0991C12.3384 17.0991 11.23 16.5358 10.8334 15.875L10.0517 18.4425C9.78337 19.3741 9.04837 20.62 8.54671 21.3675V21.335Z" fill="#CCCCCC"/>
</svg>
